<svg id="visual" viewBox="0 0 900 600" width="900" height="600" xmlns="http://www.w3.org/2000/svg" xmlns:xlink="http://www.w3.org/1999/xlink" version="1.1"><path d="M0 85L37.5 88C75 91 150 97 225 118C300 139 375 175 450 202C525 229 600 247 675 239C750 231 825 197 862.5 180L900 163L900 0L862.5 0C825 0 750 0 675 0C600 0 525 0 450 0C375 0 300 0 225 0C150 0 75 0 37.5 0L0 0Z" fill="#d1acff"></path><path d="M0 301L37.5 298C75 295 150 289 225 295C300 301 375 319 450 343C525 367 600 397 675 389C750 381 825 335 862.5 312L900 289L900 161L862.5 178C825 195 750 229 675 237C600 245 525 227 450 200C375 173 300 137 225 116C150 95 75 89 37.5 86L0 83Z" fill="#c699fe"></path><path d="M0 421L37.5 413C75 405 150 389 225 394C300 399 375 425 450 442C525 459 600 467 675 455C750 443 825 411 862.5 395L900 379L900 287L862.5 310C825 333 750 379 675 387C600 395 525 365 450 341C375 317 300 299 225 293C150 287 75 293 37.5 296L0 299Z" fill="#bb86fc"></path><path d="M0 511L37.5 510C75 509 150 507 225 506C300 505 375 505 450 515C525 525 600 545 675 544C750 543 825 521 862.5 510L900 499L900 377L862.5 393C825 409 750 441 675 453C600 465 525 457 450 440C375 423 300 397 225 392C150 387 75 403 37.5 411L0 419Z" fill="#ab73f2"></path><path d="M0 601L37.5 601C75 601 150 601 225 601C300 601 375 601 450 601C525 601 600 601 675 601C750 601 825 601 862.5 601L900 601L900 497L862.5 508C825 519 750 541 675 542C600 543 525 523 450 513C375 503 300 503 225 504C150 505 75 507 37.5 508L0 509Z" fill="#9b61e7"></path></svg>